<svg width="699" height="54" viewBox="0 0 699 54" fill="none" xmlns="http://www.w3.org/2000/svg">
<path style="mix-blend-mode:overlay" opacity="0.5" d="M396.674 0.396234L385.055 26.9167L396.674 53.4279H364.083L352.658 27.2761H352.319L352.484 26.8798L352.309 26.4836H352.658L364.083 0.322499L396.674 0.396234ZM263.426 0.276435L251.904 26.6587H251.652L251.778 26.9443L251.652 27.2208H251.904L263.416 53.6122L296.016 53.5661L284.398 26.9443L296.016 0.313303L263.426 0.276435ZM313.774 0.331723L302.3 26.6034H302L302.145 26.9443L302 27.2853H302.3L313.774 53.5569L346.364 53.5109L334.746 26.9443L346.364 0.36859L313.774 0.331723ZM213.078 0.211924L201.459 26.714H201.266L201.362 26.9443L201.266 27.1655H201.459L213.078 53.6675L245.669 53.6215L234.05 26.9443L245.669 0.221148L213.078 0.211924ZM162.73 0.156637L151.111 26.7692H150.966L151.044 26.9351L150.966 27.1102H151.111L162.73 53.7228H195.321L183.644 26.9996L195.321 0.276435L162.73 0.156637ZM44.3642 0H11.7737L0 26.9167L11.7737 53.8702L44.3642 53.8242L32.6099 26.9167L44.3642 0ZM145.06 0.11977L112.469 0.0737068L100.851 26.7969H100.744L100.802 26.9167V27.0273H100.899L112.518 53.7504H145.108L133.412 26.9536L145.06 0.11977ZM62.1409 0.0184197L50.4253 26.8614V26.9167V26.972H50.4834L62.199 53.8057H94.7896L83.0643 26.9536L94.7896 0.10135L62.1409 0.0184197ZM447.041 0.460745L414.45 0.414653L403.035 26.4652H402.647L402.841 26.9167L402.647 27.3682H403.035L414.411 53.4095H447.002L435.451 26.9536L447.041 0.460745ZM648.365 0.681893H615.774L604.591 26.2716H604L604.3 26.9536L604 27.6355H604.591L615.774 53.2252L648.365 53.1791L636.91 26.9536L648.365 0.681893ZM666.103 0.681893L654.968 26.1795H654.319L654.648 26.9167L654.319 27.6539H654.968L666.093 53.133L698.683 53.087L687.249 26.9167L698.683 0.73718L666.103 0.681893ZM565.407 0.562095L554.175 26.2716H553.633L553.904 26.8983L553.633 27.5157H554.185L565.407 53.2252L597.988 53.1791L586.514 26.9167L597.988 0.626606L565.407 0.562095ZM497.331 0.497584L464.74 0.451521L453.421 26.3822H452.976L453.199 26.8983L452.976 27.4051H453.421L464.74 53.3358H497.331L485.809 26.9351L497.331 0.497584ZM547.678 0.552871L515.088 0.506808L503.818 26.3085H503.324L503.566 26.8798L503.324 27.4419H503.818L515.088 53.2436H547.678L536.176 26.8983L547.678 0.552871Z" fill="url(#paint0_linear_1003_18934)"/>
<defs>
<linearGradient id="paint0_linear_1003_18934" x1="0" y1="26.9167" x2="698.654" y2="26.9167" gradientUnits="userSpaceOnUse">
<stop stop-color="white" stop-opacity="0.75"/>
<stop offset="1" stop-color="#808080" stop-opacity="0"/>
</linearGradient>
</defs>
</svg>
